<svg width="18" height="10" viewBox="0 0 18 10" fill="none" xmlns="http://www.w3.org/2000/svg">
<path d="M7 8.25C6.58579 8.25 6.25 8.58579 6.25 9C6.25 9.41421 6.58579 9.75 7 9.75H11C11.4142 9.75 11.75 9.41421 11.75 9C11.75 8.58579 11.4142 8.25 11 8.25H7Z" fill="#8C21BA"/>
<path d="M3.25 5C3.25 4.58579 3.58579 4.25 4 4.25H14C14.4142 4.25 14.75 4.58579 14.75 5C14.75 5.41421 14.4142 5.75 14 5.75H4C3.58579 5.75 3.25 5.41421 3.25 5Z" fill="#8C21BA"/>
<path d="M0.25 1C0.25 0.585787 0.585786 0.25 1 0.25H17C17.4142 0.25 17.75 0.585787 17.75 1C17.75 1.41421 17.4142 1.75 17 1.75H1C0.585786 1.75 0.25 1.41421 0.25 1Z" fill="#8C21BA"/>
</svg>
